<?xml version="1.0" standalone="no"?><!DOCTYPE svg PUBLIC "-//W3C//DTD SVG 1.1//EN" "http://www.w3.org/Graphics/SVG/1.1/DTD/svg11.dtd"><svg t="1560773055288" class="icon" style="" viewBox="0 0 1024 1024" version="1.1" xmlns="http://www.w3.org/2000/svg" p-id="2337" xmlns:xlink="http://www.w3.org/1999/xlink" width="196" height="196"><defs><style type="text/css"></style></defs><path d="M787.523735 320.747082l-13.945525 13.148638c-35.859922-39.047471-83.274708-66.540078-134.275486-78.094942-12.750195-2.789105-25.898833-5.179767-39.047471-5.976653-6.375097-0.796887-13.148638-0.398444-19.922179-0.796888-3.187549 0-6.773541 0-9.96109 0.398444H565.590661l-4.781322 0.398444c-13.148638 0.796887-26.297276 2.789105-39.047471 5.57821-12.750195 2.789105-25.500389 6.773541-37.453697 11.554863C435.299611 286.08249 392.267704 320.348638 362.384436 363.778988s-45.821012 95.228016-45.821012 148.619456c0 52.992996 15.937743 105.189105 45.821012 148.619455 29.883268 43.43035 72.915175 78.094942 121.923735 96.82179 12.351751 4.781323 24.703502 8.765759 37.453697 11.554864 12.750195 2.789105 25.898833 4.781323 39.047471 5.57821 3.187549 0.398444 6.773541 0.398444 9.961089 0.398443l9.96109 0.398444c6.773541-0.398444 13.148638 0 19.922178-0.796887 13.148638-0.796887 26.297276-3.187549 39.047471-5.976654 51.000778-11.554864 98.415564-39.047471 134.275487-78.094942l13.945525 13.148638c-38.250584 41.836576-89.251362 71.321401-144.236576 83.673152-13.547082 3.187549-27.492607 5.57821-41.836576 6.375097-7.171984 0.796887-14.343969 0.398444-21.117509 0.796888l-10.757977-0.398444c-3.585992 0-7.171984-0.398444-10.757977-0.398444-13.945525-0.796887-28.289494-3.187549-41.836576-5.976653-13.945525-2.789105-27.094163-7.171984-40.242801-12.351751-52.594553-20.320623-98.814008-57.375875-130.689494-103.993775-32.27393-46.617899-49.00856-102.4-49.008561-159.377431s17.133074-112.759533 49.407004-159.377432c31.875486-46.617899 78.094942-83.673152 130.689494-103.993775 13.148638-5.179767 26.69572-9.562646 40.242802-12.351751 13.547082-3.187549 27.492607-5.179767 41.836576-5.976653l5.179766-0.398444h5.179767c3.585992 0 7.171984-0.398444 10.757977-0.398443 7.171984 0.398444 14.343969 0 21.117509 0.796887 13.945525 0.796887 27.891051 3.187549 41.836576 6.375097 54.58677 12.351751 105.587549 41.836576 143.838132 83.673152z" fill="#F2F2F2" p-id="2338"></path><path d="M801.469261 307.996887l-13.945526 13.148638c-38.250584-41.836576-89.251362-71.321401-144.236575-84.071595-13.547082-3.187549-27.492607-5.57821-41.836576-6.375097-7.171984-0.796887-14.343969-0.796887-21.11751-0.796887-3.585992 0-7.171984 0-10.757977 0.398443h-5.179766l-5.179767 0.398444c-13.945525 0.796887-28.289494 3.187549-41.836576 5.976653-13.945525 2.789105-27.094163 7.171984-40.242801 12.351751-52.594553 19.922179-98.814008 56.977432-130.689494 103.595331-32.27393 46.617899-49.407004 102.4-49.407004 159.377432s17.133074 112.759533 49.00856 159.377432 78.094942 83.673152 130.689494 103.993774c13.148638 5.179767 26.69572 9.562646 40.242802 12.351751 13.547082 3.187549 27.492607 5.179767 41.836576 5.976654 3.585992 0.398444 7.171984 0.398444 10.757976 0.398443l10.757977 0.398444c7.171984-0.398444 14.343969 0 21.11751-0.796887 13.945525-0.796887 27.891051-3.187549 41.836576-6.375097 54.985214-12.351751 105.985992-42.235019 144.236575-83.673152l13.945526 13.148638c-41.039689 44.625681-95.228016 76.102724-153.799222 89.649805-14.742412 3.187549-29.484825 5.976654-44.625681 6.773541-7.570428 0.796887-15.140856 0.796887-22.711284 1.195331l-11.15642-0.398444c-3.984436 0-7.570428-0.398444-11.156421-0.796887-15.140856-0.796887-29.883268-3.187549-44.62568-6.773541-14.742412-3.187549-29.086381-7.570428-43.031907-13.148638-56.180545-21.914397-105.587549-60.961868-139.455253-111.165758-34.266148-49.805447-52.594553-109.571984-52.594553-170.135409 0-60.563424 18.328405-120.329961 52.594553-170.135409C364.775097 292.059144 414.182101 252.61323 469.964202 231.097276c13.945525-5.57821 28.289494-9.961089 43.031907-13.148638 14.742412-3.187549 29.484825-5.57821 44.625681-6.375097l5.57821-0.398444h5.57821c3.585992 0 7.570428-0.398444 11.15642-0.398443 7.570428 0.398444 15.140856 0 22.711284 1.19533 15.140856 0.796887 29.883268 3.585992 44.625681 6.773541 58.96965 12.750195 113.55642 44.625681 154.197666 89.251362z" fill="" p-id="2339"></path><path d="M815.81323 294.848249l-13.945526 13.148638c-41.039689-44.625681-95.228016-76.102724-153.799222-89.649805-14.742412-3.187549-29.484825-5.976654-44.62568-6.773541-7.570428-0.796887-15.140856-0.796887-22.711284-1.195331-3.585992 0-7.570428 0-11.156421 0.398444h-5.57821l-6.375097 0.398443c-15.140856 0.796887-29.883268 3.187549-44.625681 6.375098-14.742412 3.187549-29.086381 7.570428-43.031907 13.148638-55.782101 21.914397-105.189105 61.360311-139.455253 111.165758-34.266148 49.805447-52.594553 109.571984-52.594552 170.135409 0 60.563424 18.328405 120.329961 52.594552 170.135409 33.867704 49.805447 83.274708 89.251362 139.455253 111.165758 13.945525 5.57821 28.289494 9.961089 43.031907 13.148638 14.742412 3.187549 29.484825 5.57821 44.625681 6.773541 3.585992 0.398444 7.570428 0.796887 11.15642 0.796887l11.15642 0.398444c7.570428-0.398444 15.140856 0 22.711284-1.195331 15.140856-0.796887 29.883268-3.585992 44.625681-6.773541 58.571206-13.148638 113.157977-45.024125 153.799222-89.649805l13.945525 13.148638c-43.43035 47.414786-101.204669 80.884047-163.760311 95.228016-15.5393 3.585992-31.477043 6.375097-47.414786 7.171984-7.968872 0.796887-15.937743 0.796887-23.906615 1.195331l-11.953307-0.398444c-3.984436 0-7.968872-0.398444-11.953307-0.796887-15.937743-0.796887-31.875486-3.585992-47.414786-7.171984-15.5393-3.187549-31.078599-8.367315-45.821012-13.945526-59.766537-23.109728-111.962646-64.946304-148.221012-117.939299-36.258366-52.992996-55.782101-116.743969-55.782101-180.893385 0-64.149416 19.523735-127.900389 55.782101-180.893386 36.258366-52.992996 88.852918-94.829572 148.221012-117.939299 14.742412-5.976654 30.281712-10.757977 45.821012-13.945526 15.5393-3.585992 31.477043-5.976654 47.414786-6.77354l5.976653-0.398444h5.976654c3.984436 0 7.968872-0.398444 11.953307-0.398444 7.968872 0.398444 15.937743 0 23.906615 1.195331 15.937743 1.195331 31.875486 3.585992 47.414786 7.171985 63.352529 13.148638 121.126848 47.016342 164.557199 94.431128z" fill="#F2F2F2" p-id="2340"></path><path d="M829.758755 282.098054l-13.945525 13.148639c-43.43035-47.414786-101.204669-81.28249-163.760312-95.228016-15.5393-3.585992-31.477043-6.375097-47.414786-7.171984-7.968872-0.796887-15.937743-0.796887-23.906614-1.195331-3.984436 0-7.968872 0.398444-11.953308 0.398443h-5.976654l-5.976653 0.398444c-15.937743 0.796887-31.875486 3.585992-47.414786 6.773541-15.5393 3.187549-31.078599 8.367315-45.821012 13.945525-59.766537 23.109728-111.962646 64.946304-148.221012 117.9393-36.656809 52.992996-56.180545 116.345525-55.782101 180.893385 0 64.149416 19.523735 127.900389 55.782101 180.893385 36.258366 52.992996 88.454475 94.829572 148.221012 117.9393 14.742412 5.976654 30.281712 10.757977 45.821012 13.945525 15.5393 3.585992 31.477043 5.976654 47.414786 7.171985 3.984436 0.398444 7.968872 0.796887 11.953307 0.796887l11.953308 0.398443c7.968872-0.398444 15.937743 0 23.906614-1.19533 15.937743-1.195331 31.875486-3.585992 47.414786-7.171985 62.555642-14.343969 120.329961-47.81323 163.760312-95.228015l13.945525 13.148638c-46.219455 50.203891-107.181323 85.66537-173.322957 100.806225-16.73463 3.585992-33.469261 6.375097-50.203891 7.570428-8.367315 0.796887-17.133074 0.796887-25.500389 1.195331l-12.750195-0.398443c-4.382879 0-8.367315-0.398444-12.750195-0.796888-17.133074-1.195331-33.867704-3.585992-50.203891-7.570428-16.73463-3.585992-32.672374-8.765759-48.610116-14.742412-63.352529-24.703502-118.736187-68.930739-156.986771-125.111284-38.649027-56.180545-59.368093-123.51751-58.96965-191.651362 0-68.133852 20.719066-135.869261 59.368094-191.651362C337.28249 264.168093 393.064591 219.940856 456.018677 195.237354c15.937743-5.976654 31.875486-11.15642 48.610117-14.742412 16.73463-3.585992 33.469261-6.375097 50.203891-7.570428l6.375097-0.398444h6.375097c4.382879 0 8.367315-0.398444 12.750195-0.398444 8.367315 0.398444 17.133074 0.398444 25.500389 1.195331 17.133074 1.195331 33.867704 3.984436 50.203891 7.570428 66.540078 15.140856 127.501946 51.000778 173.721401 101.204669z" fill="" p-id="2341"></path><path d="M843.70428 268.949416l-13.945525 13.148638c-45.821012-50.203891-107.181323-86.063813-173.322957-101.204669-16.73463-3.585992-33.469261-6.375097-50.203891-7.570428-8.367315-0.796887-17.133074-0.796887-25.500389-1.195331-4.382879 0-8.367315 0.398444-12.750195 0.398444H561.606226l-6.375098 0.398444c-17.133074 1.195331-33.867704 3.585992-50.203891 7.570428-16.73463 3.585992-32.672374 8.765759-48.610116 14.742412-63.352529 24.703502-118.736187 68.930739-156.986771 124.712841-38.649027 55.782101-59.368093 123.51751-59.368093 191.651361s20.719066 135.869261 58.96965 191.651362c38.250584 56.180545 94.032685 100.407782 156.98677 125.111284 15.937743 6.375097 31.875486 11.15642 48.610117 14.742413 16.73463 3.585992 33.469261 6.375097 50.203891 7.570428 4.382879 0.398444 8.367315 0.796887 12.750194 0.796887l12.750195 0.398444c8.367315-0.398444 17.133074 0 25.500389-1.195331 17.133074-1.195331 33.867704-3.984436 50.203891-7.570428 66.141634-15.140856 127.501946-50.602335 173.322957-100.806226l13.945526 13.148638c-48.610117 52.992996-113.157977 90.845136-183.284047 106.384436-69.727626 15.937743-144.635019 10.757977-211.573541-15.5393-66.938521-25.898833-125.509728-72.915175-165.752529-131.884824-40.641245-58.96965-62.555642-130.689494-62.555642-202.409339 0.398444-17.929961 1.593774-35.859922 3.984436-53.789883 2.789105-17.531518 6.773541-35.063035 11.953307-52.196109 5.57821-17.133074 11.953307-33.867704 19.523735-49.805448 7.968872-15.937743 17.133074-31.477043 27.094164-46.617899 41.039689-59.368093 99.610895-105.985992 166.549416-132.283268 66.540078-26.297276 141.447471-31.477043 211.573541-15.140856 69.727626 15.937743 134.275486 53.789883 182.885603 106.782879z" fill="#F2F2F2" p-id="2342"></path><path d="M858.048249 256.199222l-13.945525 13.148638c-48.610117-52.992996-113.157977-90.845136-183.284047-106.782879-69.727626-15.937743-144.635019-11.15642-211.573541 15.140856-66.938521 25.898833-125.509728 72.516732-166.150973 131.486381-9.961089 14.742412-19.125292 30.281712-27.094163 46.617899-7.570428 16.336187-14.343969 33.070817-19.523735 49.805447-5.179767 17.133074-9.164202 34.664591-11.953308 52.196109-2.390661 17.929961-3.984436 35.859922-3.984436 53.789883 0 71.719844 21.515953 143.439689 62.555642 202.409339 40.641245 59.368093 99.212451 105.985992 165.75253 131.884825 66.540078 26.297276 141.447471 31.477043 211.57354 15.539299s134.67393-53.789883 183.284047-106.384435l13.945525 13.148638c-51.000778 55.782101-119.13463 95.626459-192.846692 112.361089-73.712062 16.73463-152.205447 11.554864-222.729961-16.336186-70.524514-27.492607-132.283268-76.501167-174.916732-139.05681-43.031907-62.157198-66.141634-137.861479-65.74319-213.167315 0.398444-18.726848 1.593774-37.85214 4.382879-56.578988 2.789105-18.726848 7.171984-37.055253 12.750195-55.383658 5.57821-17.929961 12.750195-35.461479 20.719066-52.594552 8.367315-17.133074 17.929961-33.469261 28.289494-49.008561 42.633463-62.555642 104.392218-111.564202 174.916731-139.056809 70.524514-27.492607 149.017899-33.070817 222.729961-15.937743 73.313619 17.133074 141.447471 56.977432 192.846693 112.759533z" fill="" p-id="2343"></path><path d="M871.993774 243.050584l-13.945525 13.148638c-51.000778-55.782101-119.13463-95.626459-192.846693-112.36109-73.712062-17.133074-152.205447-11.554864-222.729961 15.937743C371.947082 187.268482 310.188327 236.277043 267.554864 298.832685c-10.757977 15.5393-20.320623 31.875486-28.289494 49.00856-7.968872 17.133074-15.140856 34.664591-20.719066 52.594553-5.57821 17.929961-9.562646 36.656809-12.750195 55.383657-2.789105 18.726848-3.984436 37.453696-4.382879 56.578989 0 75.70428 22.711284 151.010117 65.74319 213.167315 42.633463 62.555642 104.392218 111.564202 174.518288 139.056809 70.12607 27.492607 149.017899 33.070817 222.729961 16.336187 73.712062-16.73463 141.845914-56.578988 192.846693-112.36109l13.945525 13.148639c-53.789883 58.571206-125.509728 100.407782-202.807782 117.939299-77.298054 17.929961-160.174319 11.953307-233.886381-17.133074-74.110506-28.687938-138.658366-80.485603-183.682491-146.228794-11.15642-16.336187-21.11751-33.469261-29.883268-51.399221-8.367315-17.929961-15.937743-36.258366-21.914397-55.383658-5.976654-19.125292-9.961089-38.250584-13.148638-58.172763-2.789105-19.523735-4.382879-39.445914-4.382879-59.368093 0.398444-19.922179 1.593774-39.844358 4.382879-59.368093 3.187549-19.523735 7.570428-39.047471 13.148638-58.172763 5.976654-18.726848 13.148638-37.453696 21.914397-55.383658s18.726848-35.063035 29.883268-51.399221c44.625681-65.344747 109.571984-117.142412 183.682491-145.830351 74.110506-29.086381 156.588327-34.664591 233.886381-16.73463 78.493385 17.531518 149.814786 59.368093 203.604669 117.9393z" fill="#F2F2F2" p-id="2344"></path><path d="M885.9393 230.300389l-13.945526 13.148638c-53.789883-58.571206-125.111284-100.407782-202.807782-117.939299-77.298054-17.929961-159.775875-12.351751-233.886381 16.73463-74.110506 28.687938-138.658366 80.485603-183.68249 145.83035-11.15642 16.336187-21.11751 33.469261-29.883269 51.399222-8.367315 17.929961-15.937743 36.258366-21.914397 55.383658-5.57821 19.125292-9.961089 38.250584-13.148638 58.172762-2.789105 19.523735-4.382879 39.445914-4.382879 59.368094 0.398444 19.922179 1.593774 39.844358 4.382879 59.368093 3.187549 19.523735 7.570428 39.047471 13.148638 58.172763 5.976654 19.125292 13.148638 37.453696 21.914397 55.383657s18.726848 35.063035 29.883269 51.399222c44.625681 65.743191 109.571984 117.142412 183.68249 146.228794 74.110506 29.086381 156.588327 34.664591 233.886381 17.133074 77.298054-17.531518 149.017899-59.368093 202.807782-117.9393l13.945526 13.148638c-56.180545 61.360311-131.486381 105.189105-212.370428 123.51751-81.28249 18.726848-167.744747 12.750195-245.042802-17.929961-78.094942-31.477043-145.83035-85.266926-192.846693-154.197666-11.554864-17.133074-22.31284-35.063035-31.078599-53.789883-8.765759-18.726848-16.73463-38.250584-22.711284-58.172762S171.131518 594.477821 167.943969 573.758755c-3.187549-20.719066-4.382879-41.438132-4.781323-62.157199 0.398444-20.719066 1.593774-41.438132 4.781323-62.157198 3.187549-20.719066 7.968872-41.039689 13.945525-60.961868 6.375097-19.922179 13.945525-39.047471 22.711284-58.172762 9.164202-18.726848 19.523735-36.656809 31.477043-53.789884C282.69572 208.385992 350.829572 154.197665 428.52607 123.915953c77.696498-30.281712 164.158755-36.258366 245.042802-17.531517 81.28249 18.328405 156.189883 62.555642 212.370428 123.915953z" fill="" p-id="2345"></path><path d="M900.283268 217.151751l-13.945525 13.148638c-56.180545-61.360311-131.087938-105.189105-212.370428-123.915953-81.28249-18.726848-167.744747-12.750195-245.042801 17.531517C350.829572 154.197665 282.69572 208.385992 235.679377 276.918288c-11.554864 17.133074-22.31284 35.063035-31.477042 53.789883-8.765759 18.726848-16.73463 38.250584-22.711284 58.172763s-10.757977 40.242802-13.945526 60.961868c-3.187549 20.719066-4.382879 41.438132-4.781323 62.157198 0.398444 20.719066 1.593774 41.438132 4.781323 62.157198 3.187549 20.719066 7.570428 41.039689 13.945526 60.961868s13.945525 39.445914 22.711284 58.172763c9.164202 18.726848 19.523735 36.656809 31.078599 53.789883C282.69572 815.614008 350.431128 869.403891 428.127626 899.685603c77.696498 30.680156 164.158755 36.656809 245.042802 17.929961 81.28249-18.328405 156.189883-62.157198 212.370428-123.51751l13.945525 13.148639C840.516732 871.396109 762.023346 917.217121 677.154864 936.342412c-21.11751 4.781323-42.633463 8.367315-64.54786 9.96109-10.757977 1.195331-21.515953 1.195331-32.672374 1.195331-5.57821 0-10.757977-0.398444-16.336186-0.398444-5.57821 0-10.757977-0.398444-16.336187-0.796887-21.515953-1.195331-43.43035-4.781323-64.54786-9.562646-21.11751-4.781323-42.235019-11.15642-62.555642-19.125292-81.28249-31.477043-152.205447-88.056031-201.214008-160.174319-12.351751-17.929961-23.109728-37.055253-32.672373-56.578988-9.164202-19.523735-17.133074-39.844358-23.906615-60.563424-6.375097-20.719066-11.15642-42.235019-14.343969-63.750973-3.187549-21.515953-4.781323-43.43035-4.781323-64.946304 0.398444-21.515953 1.593774-43.43035 4.781323-64.946303 3.585992-21.515953 7.968872-42.633463 14.343969-63.750973 6.375097-20.719066 14.742412-41.039689 23.906615-60.563424C195.835019 302.817121 206.99144 284.090272 218.944747 265.761868c49.00856-71.719844 119.931518-128.298833 201.214008-159.775876 20.320623-7.968872 41.039689-14.343969 62.555642-19.125292 21.11751-4.781323 42.633463-7.968872 64.54786-9.562646l7.968871-0.796887c2.789105 0 5.57821 0 7.968872-0.398443 5.57821 0 10.757977-0.398444 16.336187-0.398444 10.757977 0.398444 21.914397 0.398444 32.672373 1.593774 21.515953 1.593774 43.43035 5.179767 64.54786 9.96109 86.063813 19.922179 164.557198 65.743191 223.526848 129.892607z" fill="#F2F2F2" p-id="2346"></path><path d="M914.228794 204.401556l-13.945526 13.148639c-58.96965-64.149416-137.064591-109.970428-222.331517-129.494164-21.11751-4.781323-42.633463-8.367315-64.54786-9.961089-10.757977-1.195331-21.515953-1.195331-32.672373-1.593775-5.57821 0-10.757977 0.398444-16.336187 0.398444-2.789105 0-5.57821 0-7.968872 0.398443l-7.968871 0.796888c-21.515953 1.195331-43.43035 4.781323-64.54786 9.562646-21.11751 4.781323-42.235019 11.15642-62.555642 19.125291-81.28249 31.477043-152.205447 88.056031-201.214008 159.775876-12.351751 17.929961-23.109728 36.656809-32.672374 56.578988-9.562646 19.523735-17.531518 39.844358-23.906615 60.563424-6.375097 20.719066-11.15642 42.235019-14.343968 63.750973-3.187549 21.515953-4.781323 43.43035-4.781323 64.946304 0.398444 21.515953 1.593774 43.43035 4.781323 64.946303 3.187549 21.515953 7.968872 42.633463 14.343968 63.750973 6.375097 20.719066 14.343969 41.039689 23.906615 60.563424 9.562646 19.523735 20.719066 38.250584 32.672374 56.578988 49.00856 71.719844 119.931518 128.298833 201.214008 160.174319 20.320623 7.968872 41.039689 14.343969 62.555642 19.125292 21.11751 4.781323 42.633463 7.968872 64.54786 9.562646 5.57821 0.398444 10.757977 0.796887 16.336186 0.796887 5.57821 0 10.757977 0.398444 16.336187 0.398444 10.757977-0.398444 21.914397-0.398444 32.672374-1.195331 21.515953-1.593774 43.43035-5.179767 64.54786-9.961089 84.868482-19.125292 163.361868-65.344747 222.331517-129.09572l13.945525 13.148638c-15.5393 16.73463-32.27393 32.27393-49.805447 46.617899-17.929961 13.945525-36.656809 27.094163-56.180545 38.649027-19.922179 11.15642-40.242802 21.515953-61.360311 29.883268-5.179767 2.390661-10.757977 3.984436-15.937743 5.976654-5.179767 1.992218-10.757977 3.984436-16.336187 5.57821l-16.336187 4.781323-16.73463 3.984436c-22.31284 4.781323-44.625681 8.765759-67.336965 10.359533-11.15642 1.195331-22.711284 1.195331-33.867704 1.593774-5.57821 0-11.15642-0.398444-17.133074-0.398443-5.57821 0-11.15642-0.398444-17.133074-0.796887-22.711284-1.593774-45.024125-4.781323-67.336965-9.96109-22.31284-4.781323-43.828794-11.554864-64.946304-19.922179-84.868482-33.070817-158.978988-92.040467-209.979766-166.94786-12.750195-18.726848-24.305058-38.649027-34.266148-58.96965-9.961089-20.719066-17.929961-41.836576-25.101946-63.352529-6.773541-21.914397-11.554864-43.828794-15.140856-66.540078-3.187549-22.31284-4.781323-45.024125-5.179766-67.735408 0.398444-22.711284 1.593774-45.422568 5.179766-67.735409s8.367315-44.625681 15.140856-66.540077c6.773541-21.515953 15.140856-43.031907 25.101946-63.35253s21.515953-40.242802 34.266148-58.969649C255.601556 182.48716 329.712062 123.51751 414.182101 90.446693c21.11751-8.367315 43.031907-15.140856 65.344747-19.922179 22.31284-4.781323 44.625681-8.367315 67.336965-9.96109l8.367315-0.796887c2.789105 0 5.57821 0 8.367316-0.398444 5.57821 0 11.15642-0.398444 17.133074-0.398443 11.15642 0.398444 22.711284 0.398444 33.867704 1.593774 22.711284 1.593774 45.024125 5.179767 67.336965 10.359533l16.73463 3.984436 16.336187 4.781323c5.57821 1.593774 10.757977 3.585992 16.336187 5.57821 5.179767 1.992218 10.757977 3.585992 15.937743 5.976654 21.11751 8.367315 41.438132 18.726848 61.360311 29.883268 19.523735 11.554864 38.250584 24.703502 56.180545 38.649027 17.133074 12.351751 33.867704 27.891051 49.407004 44.625681z" fill="" p-id="2347"></path><path d="M928.174319 191.252918l-13.945525 13.148638c-15.5393-16.73463-31.875486-32.27393-49.805448-46.617898-17.929961-13.945525-36.258366-27.094163-56.180544-38.649028-19.523735-11.15642-40.242802-21.515953-61.360312-29.883268-5.179767-2.390661-10.757977-3.984436-15.937743-5.976654-5.179767-1.992218-10.757977-3.984436-16.336187-5.57821l-16.336186-4.781323-16.734631-3.984436c-22.31284-5.179767-44.625681-8.765759-67.336965-10.359533-11.15642-1.195331-22.711284-1.195331-33.867704-1.593774-5.57821 0-11.15642 0.398444-17.133074 0.398443-2.789105 0-5.57821 0-8.367315 0.398444l-8.367315 0.796887c-22.711284 1.593774-45.024125 4.781323-67.336965 9.96109-22.31284 4.781323-43.828794 11.554864-65.344747 19.922179C328.915175 121.525292 254.804669 180.494942 203.803891 255.402335c-12.750195 18.726848-24.305058 38.250584-34.266148 58.969649-9.961089 20.320623-17.929961 41.836576-25.101945 63.35253-6.773541 21.914397-11.554864 43.828794-15.140856 66.540077-3.187549 22.31284-4.781323 45.024125-5.179767 67.735409 0.398444 22.711284 1.593774 45.422568 5.179767 67.735409s8.367315 44.625681 15.140856 66.540077c6.773541 21.515953 15.140856 43.031907 25.101945 63.35253s21.515953 40.242802 34.266148 58.969649c51.399222 74.907393 125.111284 134.275486 209.979767 166.94786 21.11751 8.367315 43.031907 15.140856 64.946303 19.922179 22.31284 5.179767 44.625681 8.367315 67.336965 9.96109 5.57821 0.398444 11.15642 0.796887 17.133074 0.796887 5.57821 0 11.15642 0.398444 17.133074 0.398444 11.15642-0.398444 22.711284-0.398444 33.867704-1.593775 22.711284-1.593774 45.024125-5.179767 67.336965-10.359533l16.734631-3.984436 16.336186-4.781323c5.57821-1.593774 10.757977-3.585992 16.336187-5.57821 5.179767-1.992218 10.757977-3.585992 15.937743-5.976653 21.11751-8.367315 41.438132-18.328405 61.360312-29.883269 19.523735-11.554864 38.250584-24.305058 56.180544-38.649027 17.531518-14.343969 34.266148-29.883268 49.805448-46.617899l13.945525 13.148638c-16.336187 17.133074-33.469261 33.469261-51.797665 48.211673-18.726848 14.742412-37.85214 28.289494-58.571207 40.242802-20.719066 11.554864-41.836576 22.31284-63.750972 31.078599-5.57821 2.390661-11.15642 3.984436-16.734631 5.976654-5.57821 1.992218-11.15642 3.984436-16.73463 5.57821l-17.133074 5.179766-17.133074 4.38288c-23.109728 5.179767-46.617899 9.164202-70.12607 10.757976-11.953307 1.195331-23.508171 1.195331-35.461478 1.593775-5.976654 0-11.953307-0.398444-17.531518-0.398444-5.976654 0-11.953307-0.398444-17.531518-0.796887-23.508171-1.593774-47.016342-5.179767-70.12607-10.359533-23.109728-5.179767-45.821012-12.351751-67.735408-20.719066-88.454475-34.266148-165.354086-96.024903-218.745525-174.119845-13.148638-19.523735-25.101946-40.242802-35.461479-61.360311-10.359533-21.515953-18.726848-43.43035-25.898833-66.141634-6.773541-22.711284-11.953307-45.821012-15.539299-69.329183-3.585992-23.508171-5.179767-47.016342-5.179767-70.524514 0.398444-23.508171 1.992218-47.016342 5.179767-70.524513 3.585992-23.508171 8.765759-46.617899 15.937743-69.329183 7.171984-22.711284 15.937743-44.625681 25.898833-66.141634 10.359533-21.11751 22.31284-41.836576 35.461478-61.360312 53.39144-78.094942 130.689494-139.455253 219.143969-174.119844 21.914397-8.765759 44.625681-15.5393 67.735409-20.719066 23.109728-5.179767 46.617899-8.765759 70.12607-10.359533l8.765758-0.796887c2.789105 0 5.976654 0 8.765759-0.398444 5.976654 0 11.953307-0.398444 17.531518-0.398444 11.953307 0.398444 23.508171 0.398444 35.461478 1.593775 23.508171 1.593774 47.016342 5.57821 70.12607 10.757976l17.133074 4.38288 17.133074 5.179766c5.57821 1.593774 11.15642 3.585992 16.734631 5.578211 5.57821 1.992218 11.15642 3.984436 16.73463 6.375097 21.914397 8.765759 43.43035 19.125292 63.750973 31.078599s39.844358 25.500389 58.571206 40.242802c17.531518 15.140856 35.063035 31.477043 51.000778 48.610116z" fill="#F2F2F2" p-id="2348"></path><path d="M956.463813 165.354086l-13.945525 13.148638c-16.73463-17.929961-34.664591-34.664591-53.789883-50.203891-19.125292-15.140856-39.445914-29.484825-60.563424-41.836576-21.515953-12.351751-43.43035-23.109728-66.540078-32.27393-5.57821-2.390661-11.554864-4.382879-17.133074-6.375097-5.976654-1.992218-11.554864-3.984436-17.531518-5.976654l-17.531517-5.179767-18.726848-4.781323c-23.906615-5.57821-48.610117-9.562646-72.915176-11.15642-12.351751-1.195331-24.703502-1.195331-36.656809-1.593774-5.976654 0-12.351751 0.398444-18.328405 0.398443-3.187549 0-5.976654 0-9.164202 0.398444l-9.164202 0.796887c-24.703502 1.593774-49.00856 5.179767-72.915175 10.757977-23.906615 5.179767-47.81323 12.750195-70.524514 21.515953-92.040467 35.859922-172.127626 99.610895-227.909728 180.893385-13.945525 20.320623-26.297276 41.836576-37.055253 63.750973-10.757977 22.31284-19.523735 45.422568-27.094163 68.930739-7.171984 23.508171-12.750195 47.81323-16.336187 72.118288-3.585992 24.305058-5.179767 49.00856-5.57821 73.313619 0.398444 24.703502 1.992218 49.00856 5.57821 73.313619 3.984436 24.305058 9.164202 48.610117 16.336187 72.118288 7.570428 23.508171 16.336187 46.617899 27.094163 68.930739 10.757977 22.31284 23.109728 43.43035 37.055253 63.750973 55.383658 81.28249 135.470817 145.431907 227.511284 181.291828 23.109728 9.164202 46.617899 16.336187 70.524514 21.515954 23.906615 5.57821 48.610117 9.164202 72.915175 10.757976 5.976654 0.398444 12.351751 0.796887 18.328405 0.796888 5.976654 0 12.351751 0.398444 18.328405 0.398443 12.351751-0.398444 24.703502-0.398444 36.656809-1.593774 24.703502-1.593774 49.00856-5.57821 72.915175-11.15642l17.929961-4.38288 17.929961-5.179766c5.976654-1.593774 11.554864-3.585992 17.531518-5.976654 5.976654-1.992218 11.554864-3.984436 17.531517-6.375097 23.109728-9.164202 45.024125-19.922179 66.540078-32.27393 21.11751-12.351751 41.438132-26.69572 60.961868-41.836576 19.125292-15.5393 37.055253-32.27393 53.789883-50.203891l13.945525 13.148638c-17.531518 18.726848-36.258366 36.258366-55.782101 52.196109-19.922179 15.937743-41.039689 30.281712-62.954086 43.43035-22.31284 12.750195-45.024125 24.305058-68.930739 33.469261-5.976654 2.390661-11.953307 4.382879-17.929961 6.773541-5.976654 1.992218-11.953307 4.382879-18.328405 5.976653l-18.328404 5.57821-18.726849 4.38288c-25.101946 5.57821-50.203891 9.961089-75.70428 11.554864-12.750195 1.195331-25.500389 1.195331-38.250583 1.593774-6.375097 0-12.750195-0.398444-19.125292-0.398444-6.375097 0-12.750195-0.398444-19.125292-1.19533-25.500389-1.593774-51.000778-5.57821-75.70428-11.156421-25.101946-5.57821-49.407004-13.148638-73.313619-22.31284-95.626459-37.055253-178.901167-103.595331-236.277043-188.06537-14.343969-21.11751-27.094163-43.43035-38.649027-66.141634-11.15642-23.109728-20.320623-47.016342-27.89105-71.321401-7.570428-24.703502-13.148638-49.407004-17.133074-74.907393-3.585992-25.500389-5.57821-51.000778-5.57821-76.102723 0.398444-25.500389 1.992218-51.000778 5.57821-76.102724 3.984436-25.101946 9.562646-50.203891 17.133074-74.907393 7.570428-24.305058 17.133074-48.211673 28.289494-71.321401 11.15642-23.109728 24.305058-45.024125 38.649027-66.141634 56.180545-85.266926 139.455253-151.807004 235.081712-188.862257 23.906615-9.164202 48.211673-17.133074 73.313619-22.31284 25.101946-5.57821 50.203891-9.562646 75.70428-11.156421l9.562646-0.796887c3.187549 0 6.375097-0.398444 9.562646-0.398443 6.375097 0 12.750195-0.398444 19.125292-0.398444 12.750195 0.398444 25.500389 0.398444 38.250583 1.593774 25.500389 1.593774 51.000778 5.976654 75.70428 11.554864l18.726849 4.38288 18.328404 5.57821c5.976654 1.593774 12.351751 3.984436 18.328405 5.976653 5.976654 2.390661 11.953307 4.382879 17.929961 6.773541 23.906615 9.562646 46.617899 20.719066 68.930739 33.469261 21.914397 12.750195 43.031907 27.492607 62.954086 43.43035 20.320623 16.336187 39.047471 33.867704 56.578988 52.594553z" fill="#F2F2F2" p-id="2349"></path><path d="M942.119844 178.502724L928.174319 191.252918c-16.336187-17.133074-33.469261-33.469261-51.797665-48.610116-18.726848-14.742412-37.85214-28.289494-58.571207-40.242802-20.719066-11.554864-41.836576-22.31284-63.750972-31.078599-5.57821-2.390661-11.15642-3.984436-16.734631-6.375097-5.57821-1.992218-11.15642-3.984436-16.73463-5.578211l-17.133074-5.179766-17.133074-4.38288c-23.109728-5.179767-46.617899-9.164202-70.12607-10.757976-11.953307-1.195331-23.508171-1.195331-35.461478-1.593775-5.976654 0-11.953307 0.398444-17.531518 0.398444-2.789105 0-5.976654 0-8.765759 0.398444l-8.765759 1.19533c-23.508171 1.593774-47.016342 5.179767-70.12607 10.359533-23.109728 5.179767-45.821012 11.953307-67.735408 20.719067-88.454475 34.266148-165.752529 95.626459-219.143969 174.119844-13.547082 19.523735-25.500389 39.844358-35.859922 61.360311-10.359533 21.515953-18.726848 43.43035-25.898833 66.141635-6.773541 22.711284-11.953307 45.821012-15.937743 69.329182-3.585992 23.508171-5.179767 47.016342-5.179767 70.524514 0.398444 23.508171 1.992218 47.016342 5.179767 70.524514 3.585992 23.508171 8.765759 46.617899 15.5393 69.329182 7.171984 22.711284 15.937743 44.625681 25.898832 66.141635 10.359533 21.11751 22.31284 41.836576 35.461479 61.360311 53.39144 78.094942 130.291051 139.853696 218.745525 174.119844 21.914397 8.765759 44.625681 15.5393 67.735409 20.719067 23.109728 5.179767 46.617899 8.765759 70.12607 10.359533 5.976654 0.398444 11.953307 0.796887 17.531517 0.796887 5.976654 0 11.953307 0.398444 17.531518 0.398443 11.953307-0.398444 23.508171-0.398444 35.461478-1.593774 23.508171-1.593774 47.016342-5.57821 70.12607-10.757977l17.133074-4.382879 17.133074-5.179767c5.57821-1.593774 11.15642-3.585992 16.734631-5.57821l16.73463-5.976653c21.914397-8.765759 43.43035-19.125292 63.750973-31.0786s39.844358-25.500389 58.571206-40.242801c18.328405-14.742412 35.461479-31.078599 51.797665-48.211673l13.945526 13.148638c-16.73463 17.929961-34.664591 34.664591-53.789884 50.203891-19.125292 15.140856-39.445914 29.484825-60.961867 41.836576-21.515953 12.351751-43.43035 23.109728-66.540078 32.27393-5.57821 2.390661-11.554864 4.382879-17.531518 6.375097-5.976654 1.992218-11.554864 3.984436-17.531517 5.976654l-17.929961 5.179766-17.929961 4.38288c-23.906615 5.57821-48.610117 9.562646-72.915175 11.15642-12.351751 1.195331-24.703502 1.195331-36.65681 1.593774-5.976654 0-12.351751-0.398444-18.328404-0.398443-5.976654 0-12.351751-0.398444-18.328405-0.796888-24.703502-1.593774-49.00856-5.179767-72.915175-10.757976-23.906615-5.179767-47.81323-12.750195-70.524514-21.515954-92.040467-35.859922-172.127626-100.009339-227.511284-181.291828-13.945525-20.320623-26.297276-41.836576-37.055253-63.750973-10.757977-22.31284-19.523735-45.422568-27.094163-68.930739-7.171984-23.508171-12.750195-47.81323-16.336187-72.118288-3.585992-24.305058-5.179767-49.00856-5.57821-73.313619 0.398444-24.703502 1.992218-49.00856 5.57821-73.313619C95.028794 414.381323 100.20856 390.076265 107.380545 366.568093c7.570428-23.508171 16.336187-46.617899 27.094163-68.930739 10.757977-22.31284 23.109728-43.43035 37.055253-63.750973C226.913619 152.603891 307.399222 88.852918 399.439689 52.992996 422.549416 44.227237 446.057588 36.656809 469.964202 31.477043c23.906615-5.179767 48.610117-9.164202 72.915175-10.757977L553.637354 19.922179c3.187549 0 5.976654-0.398444 9.164202-0.398444 5.976654 0 12.351751-0.398444 18.328405-0.398443 12.351751 0.398444 24.703502 0.398444 36.656809 1.593774 24.703502 1.593774 49.00856 5.57821 72.915176 11.15642l17.929961 4.38288 17.531517 5.179766c5.976654 1.593774 11.554864 3.585992 17.531518 5.976654 5.976654 1.992218 11.554864 3.984436 17.133074 6.375097 23.109728 9.164202 45.024125 19.922179 66.540077 32.27393 21.11751 12.351751 41.438132 26.69572 60.563425 41.836576 19.523735 15.5393 37.453696 32.27393 54.188326 50.602335z" fill="" p-id="2350"></path></svg>